<mxfile host="app.diagrams.net" agent="Mozilla/5.0 (Windows NT 10.0; Win64; x64) AppleWebKit/537.36 (KHTML, like Gecko) Chrome/134.0.0.0 Safari/537.36" version="26.1.1" pages="2">
  <diagram name="开环系统" id="ZJvrawN25Bur2aR5RsV7">
    <mxGraphModel dx="954" dy="558" grid="0" gridSize="10" guides="1" tooltips="1" connect="1" arrows="1" fold="1" page="1" pageScale="1" pageWidth="1169" pageHeight="827" math="0" shadow="1">
      <root>
        <mxCell id="0" />
        <mxCell id="1" parent="0" />
        <mxCell id="nBI2YUWVVT5VwTpkTrmj-5" style="edgeStyle=orthogonalEdgeStyle;rounded=0;orthogonalLoop=1;jettySize=auto;html=1;exitX=1;exitY=0.5;exitDx=0;exitDy=0;entryX=0;entryY=0.5;entryDx=0;entryDy=0;" edge="1" parent="1" source="nBI2YUWVVT5VwTpkTrmj-1" target="nBI2YUWVVT5VwTpkTrmj-2">
          <mxGeometry relative="1" as="geometry" />
        </mxCell>
        <mxCell id="nBI2YUWVVT5VwTpkTrmj-10" style="edgeStyle=orthogonalEdgeStyle;rounded=0;orthogonalLoop=1;jettySize=auto;html=1;exitX=0;exitY=0.5;exitDx=0;exitDy=0;endArrow=none;endFill=0;startArrow=classic;startFill=1;" edge="1" parent="1" source="nBI2YUWVVT5VwTpkTrmj-1">
          <mxGeometry relative="1" as="geometry">
            <mxPoint x="200" y="100" as="targetPoint" />
          </mxGeometry>
        </mxCell>
        <mxCell id="nBI2YUWVVT5VwTpkTrmj-1" value="控制器" style="rounded=0;whiteSpace=wrap;html=1;fillColor=#dae8fc;strokeColor=#6c8ebf;" vertex="1" parent="1">
          <mxGeometry x="240" y="80" width="80" height="40" as="geometry" />
        </mxCell>
        <mxCell id="nBI2YUWVVT5VwTpkTrmj-6" style="edgeStyle=orthogonalEdgeStyle;rounded=0;orthogonalLoop=1;jettySize=auto;html=1;exitX=1;exitY=0.5;exitDx=0;exitDy=0;entryX=0;entryY=0.5;entryDx=0;entryDy=0;" edge="1" parent="1" source="nBI2YUWVVT5VwTpkTrmj-2" target="nBI2YUWVVT5VwTpkTrmj-3">
          <mxGeometry relative="1" as="geometry" />
        </mxCell>
        <mxCell id="nBI2YUWVVT5VwTpkTrmj-2" value="功率驱动器" style="rounded=0;whiteSpace=wrap;html=1;fillColor=#dae8fc;strokeColor=#6c8ebf;" vertex="1" parent="1">
          <mxGeometry x="360" y="80" width="80" height="40" as="geometry" />
        </mxCell>
        <mxCell id="nBI2YUWVVT5VwTpkTrmj-7" style="edgeStyle=orthogonalEdgeStyle;rounded=0;orthogonalLoop=1;jettySize=auto;html=1;exitX=1;exitY=0.5;exitDx=0;exitDy=0;entryX=0;entryY=0.5;entryDx=0;entryDy=0;" edge="1" parent="1" source="nBI2YUWVVT5VwTpkTrmj-3" target="nBI2YUWVVT5VwTpkTrmj-4">
          <mxGeometry relative="1" as="geometry" />
        </mxCell>
        <mxCell id="nBI2YUWVVT5VwTpkTrmj-3" value="伺服电机" style="rounded=0;whiteSpace=wrap;html=1;fillColor=#d5e8d4;strokeColor=#82b366;" vertex="1" parent="1">
          <mxGeometry x="480" y="80" width="80" height="40" as="geometry" />
        </mxCell>
        <mxCell id="nBI2YUWVVT5VwTpkTrmj-8" style="edgeStyle=orthogonalEdgeStyle;rounded=0;orthogonalLoop=1;jettySize=auto;html=1;exitX=1;exitY=0.5;exitDx=0;exitDy=0;" edge="1" parent="1" source="nBI2YUWVVT5VwTpkTrmj-4">
          <mxGeometry relative="1" as="geometry">
            <mxPoint x="730" y="100" as="targetPoint" />
          </mxGeometry>
        </mxCell>
        <mxCell id="nBI2YUWVVT5VwTpkTrmj-4" value="机械传动机构" style="rounded=0;whiteSpace=wrap;html=1;" vertex="1" parent="1">
          <mxGeometry x="600" y="80" width="80" height="40" as="geometry" />
        </mxCell>
        <mxCell id="nBI2YUWVVT5VwTpkTrmj-9" value="输出" style="text;html=1;align=center;verticalAlign=middle;resizable=0;points=[];autosize=1;strokeColor=none;fillColor=none;" vertex="1" parent="1">
          <mxGeometry x="680" y="68" width="50" height="30" as="geometry" />
        </mxCell>
        <mxCell id="nBI2YUWVVT5VwTpkTrmj-11" value="输入" style="text;html=1;align=center;verticalAlign=middle;resizable=0;points=[];autosize=1;strokeColor=none;fillColor=none;" vertex="1" parent="1">
          <mxGeometry x="190" y="68" width="50" height="30" as="geometry" />
        </mxCell>
        <mxCell id="nBI2YUWVVT5VwTpkTrmj-12" value="开环系统" style="text;html=1;align=center;verticalAlign=middle;resizable=0;points=[];autosize=1;strokeColor=none;fillColor=none;" vertex="1" parent="1">
          <mxGeometry x="375" y="128" width="70" height="30" as="geometry" />
        </mxCell>
        <mxCell id="nBI2YUWVVT5VwTpkTrmj-13" style="edgeStyle=orthogonalEdgeStyle;rounded=0;orthogonalLoop=1;jettySize=auto;html=1;exitX=1;exitY=0.5;exitDx=0;exitDy=0;entryX=0;entryY=0.5;entryDx=0;entryDy=0;" edge="1" parent="1" source="nBI2YUWVVT5VwTpkTrmj-15" target="nBI2YUWVVT5VwTpkTrmj-17">
          <mxGeometry relative="1" as="geometry" />
        </mxCell>
        <mxCell id="nBI2YUWVVT5VwTpkTrmj-14" style="edgeStyle=orthogonalEdgeStyle;rounded=0;orthogonalLoop=1;jettySize=auto;html=1;exitX=0;exitY=0.5;exitDx=0;exitDy=0;endArrow=none;endFill=0;startArrow=classic;startFill=1;" edge="1" parent="1" source="nBI2YUWVVT5VwTpkTrmj-15">
          <mxGeometry relative="1" as="geometry">
            <mxPoint x="200" y="193" as="targetPoint" />
          </mxGeometry>
        </mxCell>
        <mxCell id="nBI2YUWVVT5VwTpkTrmj-15" value="控制器" style="rounded=0;whiteSpace=wrap;html=1;fillColor=#dae8fc;strokeColor=#6c8ebf;" vertex="1" parent="1">
          <mxGeometry x="240" y="173" width="80" height="40" as="geometry" />
        </mxCell>
        <mxCell id="nBI2YUWVVT5VwTpkTrmj-16" style="edgeStyle=orthogonalEdgeStyle;rounded=0;orthogonalLoop=1;jettySize=auto;html=1;exitX=1;exitY=0.5;exitDx=0;exitDy=0;entryX=0;entryY=0.5;entryDx=0;entryDy=0;" edge="1" parent="1" source="nBI2YUWVVT5VwTpkTrmj-17" target="nBI2YUWVVT5VwTpkTrmj-19">
          <mxGeometry relative="1" as="geometry" />
        </mxCell>
        <mxCell id="nBI2YUWVVT5VwTpkTrmj-17" value="功率驱动器" style="rounded=0;whiteSpace=wrap;html=1;fillColor=#dae8fc;strokeColor=#6c8ebf;" vertex="1" parent="1">
          <mxGeometry x="360" y="173" width="80" height="40" as="geometry" />
        </mxCell>
        <mxCell id="nBI2YUWVVT5VwTpkTrmj-18" style="edgeStyle=orthogonalEdgeStyle;rounded=0;orthogonalLoop=1;jettySize=auto;html=1;exitX=1;exitY=0.5;exitDx=0;exitDy=0;entryX=0;entryY=0.5;entryDx=0;entryDy=0;" edge="1" parent="1" source="nBI2YUWVVT5VwTpkTrmj-19" target="nBI2YUWVVT5VwTpkTrmj-21">
          <mxGeometry relative="1" as="geometry" />
        </mxCell>
        <mxCell id="nBI2YUWVVT5VwTpkTrmj-19" value="伺服电机" style="rounded=0;whiteSpace=wrap;html=1;fillColor=#d5e8d4;strokeColor=#82b366;" vertex="1" parent="1">
          <mxGeometry x="480" y="173" width="80" height="40" as="geometry" />
        </mxCell>
        <mxCell id="nBI2YUWVVT5VwTpkTrmj-20" style="edgeStyle=orthogonalEdgeStyle;rounded=0;orthogonalLoop=1;jettySize=auto;html=1;exitX=1;exitY=0.5;exitDx=0;exitDy=0;" edge="1" parent="1" source="nBI2YUWVVT5VwTpkTrmj-21">
          <mxGeometry relative="1" as="geometry">
            <mxPoint x="730" y="193" as="targetPoint" />
          </mxGeometry>
        </mxCell>
        <mxCell id="nBI2YUWVVT5VwTpkTrmj-21" value="机械传动机构" style="rounded=0;whiteSpace=wrap;html=1;" vertex="1" parent="1">
          <mxGeometry x="600" y="173" width="80" height="40" as="geometry" />
        </mxCell>
        <mxCell id="nBI2YUWVVT5VwTpkTrmj-22" value="输出" style="text;html=1;align=center;verticalAlign=middle;resizable=0;points=[];autosize=1;strokeColor=none;fillColor=none;" vertex="1" parent="1">
          <mxGeometry x="680" y="161" width="50" height="30" as="geometry" />
        </mxCell>
        <mxCell id="nBI2YUWVVT5VwTpkTrmj-23" value="输入" style="text;html=1;align=center;verticalAlign=middle;resizable=0;points=[];autosize=1;strokeColor=none;fillColor=none;" vertex="1" parent="1">
          <mxGeometry x="190" y="161" width="50" height="30" as="geometry" />
        </mxCell>
        <mxCell id="nBI2YUWVVT5VwTpkTrmj-24" value="半闭环系统" style="text;html=1;align=center;verticalAlign=middle;resizable=0;points=[];autosize=1;strokeColor=none;fillColor=none;" vertex="1" parent="1">
          <mxGeometry x="360" y="340" width="80" height="30" as="geometry" />
        </mxCell>
        <mxCell id="nBI2YUWVVT5VwTpkTrmj-26" style="edgeStyle=orthogonalEdgeStyle;rounded=0;orthogonalLoop=1;jettySize=auto;html=1;exitX=0;exitY=0.5;exitDx=0;exitDy=0;entryX=0.5;entryY=1;entryDx=0;entryDy=0;" edge="1" parent="1" source="nBI2YUWVVT5VwTpkTrmj-25" target="nBI2YUWVVT5VwTpkTrmj-15">
          <mxGeometry relative="1" as="geometry" />
        </mxCell>
        <mxCell id="nBI2YUWVVT5VwTpkTrmj-27" style="edgeStyle=orthogonalEdgeStyle;rounded=0;orthogonalLoop=1;jettySize=auto;html=1;exitX=1;exitY=0.5;exitDx=0;exitDy=0;endArrow=none;endFill=0;startArrow=classic;startFill=1;" edge="1" parent="1" source="nBI2YUWVVT5VwTpkTrmj-25">
          <mxGeometry relative="1" as="geometry">
            <mxPoint x="460" y="192" as="targetPoint" />
          </mxGeometry>
        </mxCell>
        <mxCell id="nBI2YUWVVT5VwTpkTrmj-25" value="传感器" style="rounded=0;whiteSpace=wrap;html=1;fillColor=#dae8fc;strokeColor=#6c8ebf;" vertex="1" parent="1">
          <mxGeometry x="360" y="232" width="80" height="40" as="geometry" />
        </mxCell>
        <mxCell id="nBI2YUWVVT5VwTpkTrmj-30" style="edgeStyle=orthogonalEdgeStyle;rounded=0;orthogonalLoop=1;jettySize=auto;html=1;exitX=0;exitY=0.5;exitDx=0;exitDy=0;entryX=0.25;entryY=1;entryDx=0;entryDy=0;" edge="1" parent="1" source="nBI2YUWVVT5VwTpkTrmj-28" target="nBI2YUWVVT5VwTpkTrmj-15">
          <mxGeometry relative="1" as="geometry" />
        </mxCell>
        <mxCell id="nBI2YUWVVT5VwTpkTrmj-31" style="edgeStyle=orthogonalEdgeStyle;rounded=0;orthogonalLoop=1;jettySize=auto;html=1;exitX=1;exitY=0.5;exitDx=0;exitDy=0;endArrow=none;endFill=0;startArrow=classic;startFill=1;" edge="1" parent="1" source="nBI2YUWVVT5VwTpkTrmj-28">
          <mxGeometry relative="1" as="geometry">
            <mxPoint x="580" y="192" as="targetPoint" />
          </mxGeometry>
        </mxCell>
        <mxCell id="nBI2YUWVVT5VwTpkTrmj-28" value="传感器" style="rounded=0;whiteSpace=wrap;html=1;fillColor=#dae8fc;strokeColor=#6c8ebf;" vertex="1" parent="1">
          <mxGeometry x="360" y="292" width="80" height="40" as="geometry" />
        </mxCell>
        <mxCell id="nBI2YUWVVT5VwTpkTrmj-32" style="edgeStyle=orthogonalEdgeStyle;rounded=0;orthogonalLoop=1;jettySize=auto;html=1;exitX=1;exitY=0.5;exitDx=0;exitDy=0;entryX=0;entryY=0.5;entryDx=0;entryDy=0;" edge="1" parent="1" source="nBI2YUWVVT5VwTpkTrmj-34" target="nBI2YUWVVT5VwTpkTrmj-36">
          <mxGeometry relative="1" as="geometry" />
        </mxCell>
        <mxCell id="nBI2YUWVVT5VwTpkTrmj-33" style="edgeStyle=orthogonalEdgeStyle;rounded=0;orthogonalLoop=1;jettySize=auto;html=1;exitX=0;exitY=0.5;exitDx=0;exitDy=0;endArrow=none;endFill=0;startArrow=classic;startFill=1;" edge="1" parent="1" source="nBI2YUWVVT5VwTpkTrmj-34">
          <mxGeometry relative="1" as="geometry">
            <mxPoint x="200" y="402" as="targetPoint" />
          </mxGeometry>
        </mxCell>
        <mxCell id="nBI2YUWVVT5VwTpkTrmj-34" value="控制器" style="rounded=0;whiteSpace=wrap;html=1;fillColor=#dae8fc;strokeColor=#6c8ebf;" vertex="1" parent="1">
          <mxGeometry x="240" y="382" width="80" height="40" as="geometry" />
        </mxCell>
        <mxCell id="nBI2YUWVVT5VwTpkTrmj-35" style="edgeStyle=orthogonalEdgeStyle;rounded=0;orthogonalLoop=1;jettySize=auto;html=1;exitX=1;exitY=0.5;exitDx=0;exitDy=0;entryX=0;entryY=0.5;entryDx=0;entryDy=0;" edge="1" parent="1" source="nBI2YUWVVT5VwTpkTrmj-36" target="nBI2YUWVVT5VwTpkTrmj-38">
          <mxGeometry relative="1" as="geometry" />
        </mxCell>
        <mxCell id="nBI2YUWVVT5VwTpkTrmj-36" value="功率驱动器" style="rounded=0;whiteSpace=wrap;html=1;fillColor=#dae8fc;strokeColor=#6c8ebf;" vertex="1" parent="1">
          <mxGeometry x="360" y="382" width="80" height="40" as="geometry" />
        </mxCell>
        <mxCell id="nBI2YUWVVT5VwTpkTrmj-37" style="edgeStyle=orthogonalEdgeStyle;rounded=0;orthogonalLoop=1;jettySize=auto;html=1;exitX=1;exitY=0.5;exitDx=0;exitDy=0;entryX=0;entryY=0.5;entryDx=0;entryDy=0;" edge="1" parent="1" source="nBI2YUWVVT5VwTpkTrmj-38" target="nBI2YUWVVT5VwTpkTrmj-40">
          <mxGeometry relative="1" as="geometry" />
        </mxCell>
        <mxCell id="nBI2YUWVVT5VwTpkTrmj-38" value="伺服电机" style="rounded=0;whiteSpace=wrap;html=1;fillColor=#d5e8d4;strokeColor=#82b366;" vertex="1" parent="1">
          <mxGeometry x="480" y="382" width="80" height="40" as="geometry" />
        </mxCell>
        <mxCell id="nBI2YUWVVT5VwTpkTrmj-39" style="edgeStyle=orthogonalEdgeStyle;rounded=0;orthogonalLoop=1;jettySize=auto;html=1;exitX=1;exitY=0.5;exitDx=0;exitDy=0;" edge="1" parent="1" source="nBI2YUWVVT5VwTpkTrmj-40">
          <mxGeometry relative="1" as="geometry">
            <mxPoint x="730" y="402" as="targetPoint" />
          </mxGeometry>
        </mxCell>
        <mxCell id="nBI2YUWVVT5VwTpkTrmj-40" value="机械传动机构" style="rounded=0;whiteSpace=wrap;html=1;" vertex="1" parent="1">
          <mxGeometry x="600" y="382" width="80" height="40" as="geometry" />
        </mxCell>
        <mxCell id="nBI2YUWVVT5VwTpkTrmj-41" value="输出" style="text;html=1;align=center;verticalAlign=middle;resizable=0;points=[];autosize=1;strokeColor=none;fillColor=none;" vertex="1" parent="1">
          <mxGeometry x="680" y="370" width="50" height="30" as="geometry" />
        </mxCell>
        <mxCell id="nBI2YUWVVT5VwTpkTrmj-42" value="输入" style="text;html=1;align=center;verticalAlign=middle;resizable=0;points=[];autosize=1;strokeColor=none;fillColor=none;" vertex="1" parent="1">
          <mxGeometry x="190" y="370" width="50" height="30" as="geometry" />
        </mxCell>
        <mxCell id="nBI2YUWVVT5VwTpkTrmj-43" value="全闭环系统" style="text;html=1;align=center;verticalAlign=middle;resizable=0;points=[];autosize=1;strokeColor=none;fillColor=none;" vertex="1" parent="1">
          <mxGeometry x="360" y="552" width="80" height="30" as="geometry" />
        </mxCell>
        <mxCell id="nBI2YUWVVT5VwTpkTrmj-44" style="edgeStyle=orthogonalEdgeStyle;rounded=0;orthogonalLoop=1;jettySize=auto;html=1;exitX=0;exitY=0.5;exitDx=0;exitDy=0;entryX=0.5;entryY=1;entryDx=0;entryDy=0;" edge="1" parent="1" source="nBI2YUWVVT5VwTpkTrmj-46" target="nBI2YUWVVT5VwTpkTrmj-34">
          <mxGeometry relative="1" as="geometry" />
        </mxCell>
        <mxCell id="nBI2YUWVVT5VwTpkTrmj-45" style="edgeStyle=orthogonalEdgeStyle;rounded=0;orthogonalLoop=1;jettySize=auto;html=1;exitX=1;exitY=0.5;exitDx=0;exitDy=0;endArrow=none;endFill=0;startArrow=classic;startFill=1;" edge="1" parent="1" source="nBI2YUWVVT5VwTpkTrmj-46">
          <mxGeometry relative="1" as="geometry">
            <mxPoint x="460" y="401" as="targetPoint" />
          </mxGeometry>
        </mxCell>
        <mxCell id="nBI2YUWVVT5VwTpkTrmj-46" value="传感器" style="rounded=0;whiteSpace=wrap;html=1;fillColor=#dae8fc;strokeColor=#6c8ebf;" vertex="1" parent="1">
          <mxGeometry x="360" y="441" width="80" height="40" as="geometry" />
        </mxCell>
        <mxCell id="nBI2YUWVVT5VwTpkTrmj-47" style="edgeStyle=orthogonalEdgeStyle;rounded=0;orthogonalLoop=1;jettySize=auto;html=1;exitX=0;exitY=0.5;exitDx=0;exitDy=0;entryX=0.25;entryY=1;entryDx=0;entryDy=0;" edge="1" parent="1" source="nBI2YUWVVT5VwTpkTrmj-49" target="nBI2YUWVVT5VwTpkTrmj-34">
          <mxGeometry relative="1" as="geometry" />
        </mxCell>
        <mxCell id="nBI2YUWVVT5VwTpkTrmj-49" value="传感器" style="rounded=0;whiteSpace=wrap;html=1;fillColor=#dae8fc;strokeColor=#6c8ebf;" vertex="1" parent="1">
          <mxGeometry x="360" y="501" width="80" height="40" as="geometry" />
        </mxCell>
        <mxCell id="nBI2YUWVVT5VwTpkTrmj-50" style="edgeStyle=orthogonalEdgeStyle;rounded=0;orthogonalLoop=1;jettySize=auto;html=1;exitX=1;exitY=0.5;exitDx=0;exitDy=0;entryX=0.47;entryY=1.05;entryDx=0;entryDy=0;entryPerimeter=0;endArrow=none;endFill=0;startArrow=classic;startFill=1;" edge="1" parent="1" source="nBI2YUWVVT5VwTpkTrmj-49" target="nBI2YUWVVT5VwTpkTrmj-41">
          <mxGeometry relative="1" as="geometry" />
        </mxCell>
      </root>
    </mxGraphModel>
  </diagram>
  <diagram id="Qf_EilyNDnCsupaTSrGC" name="电机控制本质">
    <mxGraphModel dx="954" dy="558" grid="1" gridSize="10" guides="1" tooltips="1" connect="1" arrows="1" fold="1" page="1" pageScale="1" pageWidth="1169" pageHeight="827" math="0" shadow="0">
      <root>
        <mxCell id="0" />
        <mxCell id="1" parent="0" />
        <mxCell id="7kU6y_8HvUw-URd1PMr5-19" value="" style="rounded=0;whiteSpace=wrap;html=1;fillColor=#E6E6E6;strokeColor=#E6E6E6;" vertex="1" parent="1">
          <mxGeometry x="230" y="220" width="570" height="140" as="geometry" />
        </mxCell>
        <mxCell id="7kU6y_8HvUw-URd1PMr5-4" style="edgeStyle=orthogonalEdgeStyle;rounded=0;orthogonalLoop=1;jettySize=auto;html=1;exitX=1;exitY=0.5;exitDx=0;exitDy=0;entryX=0;entryY=0.5;entryDx=0;entryDy=0;" edge="1" parent="1" source="7kU6y_8HvUw-URd1PMr5-1" target="7kU6y_8HvUw-URd1PMr5-2">
          <mxGeometry relative="1" as="geometry" />
        </mxCell>
        <mxCell id="7kU6y_8HvUw-URd1PMr5-20" style="edgeStyle=orthogonalEdgeStyle;rounded=0;orthogonalLoop=1;jettySize=auto;html=1;exitX=0;exitY=0.5;exitDx=0;exitDy=0;endArrow=none;startFill=1;startArrow=classic;" edge="1" parent="1" source="7kU6y_8HvUw-URd1PMr5-1">
          <mxGeometry relative="1" as="geometry">
            <mxPoint x="180" y="260" as="targetPoint" />
          </mxGeometry>
        </mxCell>
        <mxCell id="7kU6y_8HvUw-URd1PMr5-1" value="2. 电流控制策略" style="rounded=0;whiteSpace=wrap;html=1;fillColor=#d5e8d4;strokeColor=#82b366;" vertex="1" parent="1">
          <mxGeometry x="240" y="240" width="120" height="40" as="geometry" />
        </mxCell>
        <mxCell id="7kU6y_8HvUw-URd1PMr5-6" style="edgeStyle=orthogonalEdgeStyle;rounded=0;orthogonalLoop=1;jettySize=auto;html=1;exitX=1;exitY=0.5;exitDx=0;exitDy=0;entryX=0;entryY=0.5;entryDx=0;entryDy=0;" edge="1" parent="1" source="7kU6y_8HvUw-URd1PMr5-2" target="7kU6y_8HvUw-URd1PMr5-3">
          <mxGeometry relative="1" as="geometry" />
        </mxCell>
        <mxCell id="7kU6y_8HvUw-URd1PMr5-2" value="3. 控制算法" style="rounded=0;whiteSpace=wrap;html=1;fillColor=#d5e8d4;strokeColor=#82b366;" vertex="1" parent="1">
          <mxGeometry x="440" y="240" width="80" height="40" as="geometry" />
        </mxCell>
        <mxCell id="7kU6y_8HvUw-URd1PMr5-11" style="edgeStyle=orthogonalEdgeStyle;rounded=0;orthogonalLoop=1;jettySize=auto;html=1;exitX=0.5;exitY=1;exitDx=0;exitDy=0;" edge="1" parent="1" source="7kU6y_8HvUw-URd1PMr5-3">
          <mxGeometry relative="1" as="geometry">
            <mxPoint x="680" y="330" as="targetPoint" />
          </mxGeometry>
        </mxCell>
        <mxCell id="7kU6y_8HvUw-URd1PMr5-12" style="edgeStyle=orthogonalEdgeStyle;rounded=0;orthogonalLoop=1;jettySize=auto;html=1;exitX=0.75;exitY=1;exitDx=0;exitDy=0;" edge="1" parent="1" source="7kU6y_8HvUw-URd1PMr5-3">
          <mxGeometry relative="1" as="geometry">
            <mxPoint x="720" y="330" as="targetPoint" />
          </mxGeometry>
        </mxCell>
        <mxCell id="7kU6y_8HvUw-URd1PMr5-13" style="edgeStyle=orthogonalEdgeStyle;rounded=0;orthogonalLoop=1;jettySize=auto;html=1;exitX=0.25;exitY=1;exitDx=0;exitDy=0;" edge="1" parent="1" source="7kU6y_8HvUw-URd1PMr5-3">
          <mxGeometry relative="1" as="geometry">
            <mxPoint x="640" y="330" as="targetPoint" />
          </mxGeometry>
        </mxCell>
        <mxCell id="7kU6y_8HvUw-URd1PMr5-3" value="4. PWM 调制方法" style="rounded=0;whiteSpace=wrap;html=1;fillColor=#d5e8d4;strokeColor=#82b366;" vertex="1" parent="1">
          <mxGeometry x="600" y="240" width="160" height="40" as="geometry" />
        </mxCell>
        <mxCell id="7kU6y_8HvUw-URd1PMr5-5" value="电流指令" style="text;html=1;align=center;verticalAlign=middle;resizable=0;points=[];autosize=1;strokeColor=none;fillColor=none;" vertex="1" parent="1">
          <mxGeometry x="360" y="230" width="70" height="30" as="geometry" />
        </mxCell>
        <mxCell id="7kU6y_8HvUw-URd1PMr5-7" value="电压指令" style="text;html=1;align=center;verticalAlign=middle;resizable=0;points=[];autosize=1;strokeColor=none;fillColor=none;" vertex="1" parent="1">
          <mxGeometry x="520" y="230" width="70" height="30" as="geometry" />
        </mxCell>
        <mxCell id="7kU6y_8HvUw-URd1PMr5-14" style="edgeStyle=orthogonalEdgeStyle;rounded=0;orthogonalLoop=1;jettySize=auto;html=1;exitX=0.25;exitY=1;exitDx=0;exitDy=0;" edge="1" parent="1">
          <mxGeometry relative="1" as="geometry">
            <mxPoint x="619" y="329" as="targetPoint" />
            <mxPoint x="619" y="279" as="sourcePoint" />
          </mxGeometry>
        </mxCell>
        <mxCell id="7kU6y_8HvUw-URd1PMr5-15" style="edgeStyle=orthogonalEdgeStyle;rounded=0;orthogonalLoop=1;jettySize=auto;html=1;exitX=0.25;exitY=1;exitDx=0;exitDy=0;" edge="1" parent="1">
          <mxGeometry relative="1" as="geometry">
            <mxPoint x="661" y="330" as="targetPoint" />
            <mxPoint x="661" y="280" as="sourcePoint" />
          </mxGeometry>
        </mxCell>
        <mxCell id="7kU6y_8HvUw-URd1PMr5-16" style="edgeStyle=orthogonalEdgeStyle;rounded=0;orthogonalLoop=1;jettySize=auto;html=1;exitX=0.25;exitY=1;exitDx=0;exitDy=0;" edge="1" parent="1">
          <mxGeometry relative="1" as="geometry">
            <mxPoint x="699" y="330" as="targetPoint" />
            <mxPoint x="699" y="280" as="sourcePoint" />
          </mxGeometry>
        </mxCell>
        <mxCell id="7kU6y_8HvUw-URd1PMr5-17" style="edgeStyle=orthogonalEdgeStyle;rounded=0;orthogonalLoop=1;jettySize=auto;html=1;exitX=0.25;exitY=1;exitDx=0;exitDy=0;" edge="1" parent="1">
          <mxGeometry relative="1" as="geometry">
            <mxPoint x="739" y="330" as="targetPoint" />
            <mxPoint x="739" y="280" as="sourcePoint" />
          </mxGeometry>
        </mxCell>
        <mxCell id="7kU6y_8HvUw-URd1PMr5-18" value="开关信号" style="text;html=1;align=center;verticalAlign=middle;resizable=0;points=[];autosize=1;strokeColor=none;fillColor=none;" vertex="1" parent="1">
          <mxGeometry x="640" y="330" width="70" height="30" as="geometry" />
        </mxCell>
        <mxCell id="7kU6y_8HvUw-URd1PMr5-21" value="转矩指令" style="text;html=1;align=center;verticalAlign=middle;resizable=0;points=[];autosize=1;strokeColor=none;fillColor=none;" vertex="1" parent="1">
          <mxGeometry x="160" y="230" width="70" height="30" as="geometry" />
        </mxCell>
        <mxCell id="7kU6y_8HvUw-URd1PMr5-22" value="1. 电机控制技术框架" style="text;html=1;align=center;verticalAlign=middle;resizable=0;points=[];autosize=1;strokeColor=none;fillColor=none;" vertex="1" parent="1">
          <mxGeometry x="410" y="320" width="130" height="30" as="geometry" />
        </mxCell>
      </root>
    </mxGraphModel>
  </diagram>
</mxfile>
